# xmcd CD database file
#
# Track frame offsets:
#	179
#	16322
#	27747
#	47834
#	64592
#	73344
#	92375
#	106362
#	120754
#	136536
#	149089
#
# Disc length: 2311 seconds
#
# Revision: 1
# Processed by: cddbd v1.5.2PL0 Copyright (c) Steve Scherf et al.
# Submitted via: CDex 1.70beta2
#
DISCID=9509050b
DTITLE=John Denver - JD
DYEAR=1979
DGENRE=Folk-Rock
TTITLE0=Downhill Stuff
TTITLE1=Sweet Melinda
TTITLE2=What's On Your Mind
TTITLE3=Joseph and Joe
TTITLE4=Life Is So Good
TTITLE5=Berkeley Woman
TTITLE6=Johnny B. Goode
TTITLE7=You're So Beautiful
TTITLE8=Southwind
TTITLE9=Garden Song
TTITLE10=Songs Of
EXTD=YEAR: 1979
EXTT0=
EXTT1=
EXTT2=
EXTT3=
EXTT4=
EXTT5=
EXTT6=
EXTT7=
EXTT8=
EXTT9=
EXTT10=
PLAYORDER=
